<mxfile host="app.diagrams.net" modified="2024-05-11T05:16:47.545Z" agent="Mozilla/5.0 (Macintosh; Intel Mac OS X 10_15_7) AppleWebKit/537.36 (KHTML, like Gecko) Chrome/124.0.0.0 Safari/537.36" etag="jsma4gSNH1I2w0e1SQvP" version="24.4.0" type="github">
  <diagram id="f106602c-feb2-e66a-4537-3a34d633f6aa" name="Page-1">
    <mxGraphModel dx="670" dy="1215" grid="1" gridSize="10" guides="1" tooltips="1" connect="1" arrows="1" fold="1" page="1" pageScale="1" pageWidth="1169" pageHeight="827" background="none" math="0" shadow="0">
      <root>
        <mxCell id="0" />
        <mxCell id="1" parent="0" />
        <mxCell id="Lif8JBEafslfNm7ranTe-1" value="&lt;b&gt;Google &lt;/b&gt;Cloud Platform" style="fillColor=#F6F6F6;strokeColor=#4284f3;shadow=0;gradientColor=none;fontSize=14;align=left;spacing=10;fontColor=#717171;9E9E9E;verticalAlign=top;spacingTop=-4;fontStyle=0;spacingLeft=40;html=1;" parent="1" vertex="1">
          <mxGeometry x="355" y="220" width="355" height="260" as="geometry" />
        </mxCell>
        <mxCell id="Lif8JBEafslfNm7ranTe-2" value="" style="shape=mxgraph.gcp2.google_cloud_platform;fillColor=#F6F6F6;strokeColor=none;shadow=0;gradientColor=none;" parent="Lif8JBEafslfNm7ranTe-1" vertex="1">
          <mxGeometry width="23" height="20" relative="1" as="geometry">
            <mxPoint x="20" y="10" as="offset" />
          </mxGeometry>
        </mxCell>
        <mxCell id="Lif8JBEafslfNm7ranTe-4" value="Architecture: Discord Bot on GCE with CRM" style="fillColor=#4DA1F5;strokeColor=none;shadow=1;gradientColor=none;fontSize=14;align=left;spacingLeft=50;fontColor=#ffffff;html=1;" parent="1" vertex="1">
          <mxGeometry x="170" y="150" width="570" height="40" as="geometry" />
        </mxCell>
        <mxCell id="hHWugc5wn6qqPhmoBQbS-3" value="" style="group" vertex="1" connectable="0" parent="1">
          <mxGeometry x="210" y="240" width="90" height="160" as="geometry" />
        </mxCell>
        <mxCell id="Lif8JBEafslfNm7ranTe-3" value="Abobon Jr&lt;div&gt;(Discord Bot)&lt;/div&gt;" style="rounded=1;absoluteArcSize=1;arcSize=2;html=1;strokeColor=#6c8ebf;shadow=0;dashed=0;fontSize=12;align=left;verticalAlign=top;spacing=10;spacingTop=-4;fillColor=#dae8fc;" parent="hHWugc5wn6qqPhmoBQbS-3" vertex="1">
          <mxGeometry width="90" height="160" as="geometry" />
        </mxCell>
        <mxCell id="Lif8JBEafslfNm7ranTe-6" value="" style="strokeColor=#dddddd;fillColor=#ffffff;shadow=1;strokeWidth=1;rounded=1;absoluteArcSize=1;arcSize=2;labelPosition=center;verticalLabelPosition=middle;align=center;verticalAlign=bottom;spacingLeft=0;fontColor=#999999;fontSize=12;whiteSpace=wrap;spacingBottom=2;html=1;" parent="hHWugc5wn6qqPhmoBQbS-3" vertex="1">
          <mxGeometry x="10" y="60" width="70" height="70" as="geometry" />
        </mxCell>
        <mxCell id="hHWugc5wn6qqPhmoBQbS-1" value="" style="shape=image;imageAspect=0;aspect=fixed;verticalLabelPosition=bottom;verticalAlign=top;image=data:image/png,iVBORw0KGgoAAAANSUhEUgAAAGQAAABkCAYAAABw4pVUAAAACXBIWXMAAAsTAAALEwEAmpwYAAAI4ElEQVR4nO2cCYwVRRCGfw4BuY/IJQKCBiMiIBhUFAII3rfGg3gkCIgYNaKIEEQioDG6KsYLkBCUmCgqEQ9AQRO5QUBIuAQEVNTIscixyILPlPk3GSs9b3rmzbw3D/pLOrvZne6q7pm+qroLcDgcDofD4XA4HA6Hw+FwOBwOhyNXqgLoBGAQgFcAzAOwCcBhALsAXJ1AE/cFsJMyNlGmyB4IoCOAKjjJkEo/CWA+gIMAMlnS7wBOiVF2NQC/Bcg8QN1Ex/NxgtIBwMsAfglojIwhxdlLrokg/2cAJaxDUVMdwGAAKyM0QsaTXo1Rp4k56rKCw6v0tKJ6EQ9ynLapZDlf2lQAI/gCvP//EUAvAPcBGMPnZEjZAGA7gL0AjjLt5d828JmpzHMvy/jR8LJH8LmV1MVGZ6nbkGJ4MXdYvIgjAOYCGM1GquXJ34C9KpOnNJgyKxBdelO3edQ1W/4dAG5HCmkC4PMsih8HMBvAnQDqGib5cQCWAziWx5dRkY5R9jjq4qUegLsAfMY6+JUh/2+MlNCTS1STovsBTADQSuVpzaFkQwFeQCYgradurQ06P8c6mfLtYlsUlK4+S9dDAF4A0Eg93wPARyF7QimARQDe5njfH8ClXPW04ZBTjakB/9aBz/RnnkksozRkz5lJnb00Yt0O+yyZu6BAnApgs0GpxQDOVs9ebrnaOgZgNYDXOB/pnhUHrTh0iow1AUORd3UldfAidVxieHYT2ybvjDEoM0HtdM8D8EVAZcs4vwwAcFoB6iFj//3UoSxAV6lLe0/eKqyzfu7pfFeiPoB9homtEv8vP18KGJq+p7miNtJDHe4zVgX04hdVXfWCZh/bKG88oxSQeaSZ5/89fCojw8N7ALoh/VwEYEaWIe0yz7PNDXOpjCAF6x3j1TO9fbp7MdqGOgL40lAf2UN5mVCoXvK4ErxXba6EygCmcOe7gi+o2OnNukidJrOOXhqwLbxtI22VKJUMK6uRSQstIkaqttnsmWsSoa8SeKRAK6O00siwUuuTpMCZSphM0I7/M0O10QdIiKa0qPqtNBzmFWY5V2GJT+Zi83GYWa/aahgSYFk+hJwgDFNttTRuAWLp/McjQH5vGbeQE4gWhvbS1uOcGG4wIDqysyTJPckKVfhjcRZ+kgxby+Iq+ExD90vCLH6icYZqN0lt4yj44aTe9EnAMtV20pY5I34CZyqJx5QibZkT1eiW9BYqbluHHReqtvsr15OYPVWBuw1Wzji4gGek1vEQwX7+LmduOxehHK9HcY9qQ+2jD8W4hO0y9XlITU9+GbWIeIdHctIux8SHSs6zuRS2XBUmvuc4fdmrszRQRqV1yiuZNjl+DFLly/4kEg0NPvFWMV5DWByikTJMC5k3bXKCtg3eso9F9SRepQqSc7FxMdrQCKsBXM8hox5/X2N4bmQK5QSxVZV9RZRCRifk+6jnc2KluuHZ6oYTHXsNx1ELKSeKj2RUlEI+VYU8EpNy+jD1rwETaX3DJZuBKZJjw6Oq3FlRCtHndS+JSbmPVblyUynsBmtmiuTYcKnh4whtPtZer5oxKbdNlS2nG4M4X+XZkiI5NtQ03D0J5UW8yTARxsUhVbbNi66p8hxMkRxbflBl3xAm83iVWU6Px8XBCA1VW+U5kCI5tkzJZYM4S2WWK2pxcTIOWWAbesv+BCFYpzL3Q3zoyVbub+RjUh+RkBxb+qmy19pmrGTo7rE4VnyWo7sCdq4NYlr2JiXHlraG4dDqVGMzlfFojGYEcLNlu2GrYbhfsofXBtIix5aqhnNtcjczkO4JmkwqGKVkZLgKuZFfcX3+vtbw3FMplGOLvpZ9sU2me1QmOYofN1VpwMvkwbi4MA9ybJmr5MgdyNCXceQuXhI0NPicMwE3rhqnWI4Nr0e5+jYtj3cc6nF9HuQ4mpyjoS9fcoJ4QskUp1kg2uopQ1jSdGJwmrV0q5by9xLDZf5ikOPHvVEOPSxVmcQv4kgmGpHcnQ9E35CSkxO21OaOdEiMxsg0IjFRHogQGaibatuNNpn+UJnOCSHQu5bfnNBJjkLTWX2074fIe65qW9mIBqLDT9ie2q5k2PiU0fNo2owVG9VZlzLDBjKqf128koEcjrKb9LEfeXvLLQmd6Uoa0flWw6auIol71pYmKq+4CALRJ01k526LxPh4K8vSch3jSxXDi6lMXbWh1ZveDBnXRFtBpK0D+cnwdYddm99MN6VfRbbTrBHn+ae4aMkoDDuy6P8rnXhh90K6l0lbBzLUoMDXEcLZ1WG8Ez2veFM5I7cNLnAAsDa8z/FdQHSgo4xzUifC/LPAUJ60tVVX/daQea4KxxdmIhOP499ZKlrRfbdyt3w3gHYJXro/nV/4GxZhYzPUfVLEa2myFfjKUOY3YerX1KfLrubXFIVWjAqqw09kS6XcqE6j9VWsBlfSs9eaPgyvj6Mu/9acHsJejI01jHPbAssX4F0FTczhxOZZPofwtodcLP2HRGX706eRhuYQAboGg5PNKVCMxYxFT51DHUXXKEjbPOQTwe7PXGIAt88yOa+I4a5IjwCDXybP6Z9crwvQsuEXPe8Xbg5zokWWA8vHecIxSiWqGU7X72egyTm8i5JUw++mn8cU1HJ5xHi8PWks9PvAFnPuigVR8PmAQMPLGaZPh2ryo8RQRn/DErQPbWMl3ITN595gJ8d477BQyr/t5DPzmaeEZfThZUwv/Q16yPO2vpYBhg/Lm8r54hMJutzFJ/CjXpHMpuFNVlgmrjV8SdNROKYbhi7R0UQb1m22xcpxEW9tJYos1W4LcQlmG4/TjGW+7obhaEvMBwrCUoc66GGtO3Ueyzros15+aRXNLYnGyvI7RJxt3LRJ5YxvWGi6WnzxNr746wrxIjTt+BVtilAJmwNs+WJEBP03su7SBqn1F4zl15LNbFJhkkmTobEydcqm81GaWMbSJVxU1OIRSgle8y7X57voU5ibpgD2HhrTvlZGXVdS9+EMcRjFfORwOBwOh8PhcDgcDofD4XA4HA6Hw+FwOBwI5l8LnLblLYqL0wAAAABJRU5ErkJggg==;" vertex="1" parent="hHWugc5wn6qqPhmoBQbS-3">
          <mxGeometry x="25" y="75" width="40" height="40" as="geometry" />
        </mxCell>
        <mxCell id="cEKSAHbCaNsN3OeEtTBm-3" value="" style="strokeColor=#dddddd;shadow=1;strokeWidth=1;rounded=1;absoluteArcSize=1;arcSize=2;" parent="1" vertex="1">
          <mxGeometry x="460" y="290" width="185" height="60" as="geometry" />
        </mxCell>
        <mxCell id="cEKSAHbCaNsN3OeEtTBm-4" value="&lt;font color=&quot;#000000&quot;&gt;Virtual Machines&lt;/font&gt;&lt;br&gt;Compute Engine" style="editableCssRules=.*;html=1;fontColor=#999999;shape=image;verticalLabelPosition=middle;verticalAlign=middle;labelPosition=right;align=left;spacingLeft=20;part=1;points=[];imageAspect=0;image=data:image/svg+xml,PHN2ZyB4bWxucz0iaHR0cDovL3d3dy53My5vcmcvMjAwMC9zdmciIHhtbG5zOnY9Imh0dHBzOi8vdmVjdGEuaW8vbmFubyIgd2lkdGg9IjIwIiBoZWlnaHQ9IjIwIiB2aWV3Qm94PSIwIDAgMjAgMjAiPiYjeGE7CTxzdHlsZSB0eXBlPSJ0ZXh0L2NzcyI+JiN4YTsJLnN0MHtmaWxsOiM0Mjg1ZjQ7fSYjeGE7CS5zdDF7ZmlsbDojNjY5ZGY2O30mI3hhOwkuc3Qye2ZpbGw6I2FlY2JmYTt9JiN4YTsJPC9zdHlsZT4mI3hhOwk8cGF0aCBjbGFzcz0ic3QyIiBkPSJNNyA3aDZ2Nkg3eiIvPiYjeGE7CTxwYXRoIGNsYXNzPSJzdDEiIGQ9Ik05IDBoMnY0SDl6TTUgMGgydjRINXptOCAwaDJ2NGgtMnoiLz4mI3hhOwk8cGF0aCBjbGFzcz0ic3QwIiBkPSJNOSAxNmgydjRIOXptLTQgMGgydjRINXptOCAwaDJ2NGgtMnptMy01VjloNHYyem0wIDR2LTJoNHYyem0wLThWNWg0djJ6Ii8+JiN4YTsJPHBhdGggY2xhc3M9InN0MSIgZD0iTTAgMTFWOWg0djJ6bTAgNHYtMmg0djJ6bTAtOFY1aDR2MnoiLz4mI3hhOwk8cGF0aCBjbGFzcz0ic3QyIiBkPSJNMyAzdjE0aDE0VjN6bTEyIDEySDVWNWgxMHoiLz4mI3hhOwk8cGF0aCBjbGFzcz0ic3QxIiBkPSJNMTAgMTBsLTMgM2g2eiIvPiYjeGE7CTxwYXRoIGNsYXNzPSJzdDAiIGQ9Ik0xMyA3bC0zIDMgMyAzeiIvPiYjeGE7PC9zdmc+;" parent="cEKSAHbCaNsN3OeEtTBm-3" vertex="1">
          <mxGeometry width="30" height="30" relative="1" as="geometry">
            <mxPoint x="15" y="15" as="offset" />
          </mxGeometry>
        </mxCell>
        <mxCell id="hHWugc5wn6qqPhmoBQbS-7" value="" style="edgeStyle=orthogonalEdgeStyle;rounded=0;orthogonalLoop=1;jettySize=auto;html=1;fillColor=#1ba1e2;strokeColor=#4284f3;strokeWidth=2;startArrow=classic;startFill=1;" edge="1" parent="1" source="Lif8JBEafslfNm7ranTe-3" target="cEKSAHbCaNsN3OeEtTBm-3">
          <mxGeometry relative="1" as="geometry">
            <mxPoint x="385" y="320" as="targetPoint" />
          </mxGeometry>
        </mxCell>
        <mxCell id="hHWugc5wn6qqPhmoBQbS-10" value="" style="edgeStyle=orthogonalEdgeStyle;rounded=0;orthogonalLoop=1;jettySize=auto;html=1;strokeWidth=2;startArrow=none;startFill=0;endArrow=classic;endFill=1;strokeColor=#4284f3;" edge="1" parent="1" source="hHWugc5wn6qqPhmoBQbS-8" target="cEKSAHbCaNsN3OeEtTBm-3">
          <mxGeometry relative="1" as="geometry" />
        </mxCell>
        <mxCell id="hHWugc5wn6qqPhmoBQbS-8" value="" style="strokeColor=#dddddd;shadow=1;strokeWidth=2;rounded=1;absoluteArcSize=1;arcSize=2;" vertex="1" parent="1">
          <mxGeometry x="447.5" y="400" width="210" height="60" as="geometry" />
        </mxCell>
        <mxCell id="hHWugc5wn6qqPhmoBQbS-9" value="&lt;font color=&quot;#000000&quot;&gt;Secret Keys&lt;/font&gt;&lt;br&gt;Cloud Resource Manager" style="editableCssRules=.*;html=1;fontColor=#999999;shape=image;verticalLabelPosition=middle;verticalAlign=middle;labelPosition=right;align=left;spacingLeft=20;part=1;points=[];imageAspect=0;image=data:image/svg+xml,PHN2ZyB4bWxucz0iaHR0cDovL3d3dy53My5vcmcvMjAwMC9zdmciIHhtbG5zOnY9Imh0dHBzOi8vdmVjdGEuaW8vbmFubyIgd2lkdGg9IjE2LjQyMDAwMDA3NjI5Mzk0NSIgaGVpZ2h0PSIyMC4wNDk5OTkyMzcwNjA1NDciIGZpbGwtcnVsZT0iZXZlbm9kZCIgdmlld0JveD0iMCAwIDE2LjQyMDAwMDA3NjI5Mzk0NSAyMC4wNDk5OTkyMzcwNjA1NDciPiYjeGE7CTxzdHlsZSB0eXBlPSJ0ZXh0L2NzcyI+JiN4YTsJLnN0MHtmaWxsOiM0Mjg1ZjQ7fSYjeGE7CS5zdDF7ZmlsbDojNjY5ZGY2O30mI3hhOwk8L3N0eWxlPiYjeGE7CTxwYXRoIGNsYXNzPSJzdDEiIGQ9Ik04LjIxIDBMMCAzLjQydjUuNjNjMCA1LjA2IDMuNSA5LjggOC4yMSAxMSA0LjcxLTEuMTUgOC4yMS01Ljg5IDguMjEtMTAuOTVWMy40MnptMCAzLjc5YTIuNjMgMi42MyAwIDAgMSAxLjAwNSA1LjA2QTIuNjMgMi42MyAwIDAgMSA2LjM1IDQuNTZhMi42MyAyLjYzIDAgMCAxIDEuODYtLjc3em00LjExIDExLjE1YTguNjQgOC42NCAwIDAgMS00LjExIDIuOTMgOC42NCA4LjY0IDAgMCAxLTQuMTEtMi45M3YtMi4yNWMwLTEuNjcgMi43NC0yLjUyIDQuMTEtMi41MnM0LjExLjg1IDQuMTEgMi41MnoiLz4mI3hhOwk8cGF0aCBjbGFzcz0ic3QwIiBkPSJNOC4yMSAwdjMuNzlhMi42MyAyLjYzIDAgMSAxIDAgNS4yNnYxLjEyYzEuMzcgMCA0LjExLjg1IDQuMTEgMi41MnYyLjI1YTguNjQgOC42NCAwIDAgMS00LjExIDIuOTNWMjBjNC43MS0xLjE1IDguMjEtNS44OSA4LjIxLTEwLjk1VjMuNDJ6Ii8+JiN4YTs8L3N2Zz4=;" vertex="1" parent="hHWugc5wn6qqPhmoBQbS-8">
          <mxGeometry width="24" height="30" relative="1" as="geometry">
            <mxPoint x="18" y="15" as="offset" />
          </mxGeometry>
        </mxCell>
      </root>
    </mxGraphModel>
  </diagram>
</mxfile>
